# xmcd
#
# Track frame offsets: 
#        150
#        12105
#        25840
#        38340
#        52835
#        65787
#        78307
#        89817
#        102812
#        114047
#        125360
#        140590
#        154235
#        169867
#        182847
#        197247
#        209180
#        223732
#        235215
#        246962
#        260665
#        274937
#        289842
#        301092
#        317032
#        329765
#        341760
#
# Disc length: 4726 seconds
#
# Revision: 0
# Processed by: cddbd v1.5.2PL0 Copyright (c) Steve Scherf et al.
# Submitted via: ExactAudioCopy v0.95b4
#
DISCID=9812741b
DTITLE=Uncle Dave Macon - Keep my skillet good and greasy [CD7]
DYEAR=2004
DGENRE=Folk
TTITLE0=Over the mountain
TTITLE1=When the harvest days are over
TTITLE2=One more river to cross
TTITLE3=Just one way to the pearly gates
TTITLE4=I'll tickle Nancy
TTITLE5=I'll keep my skillet good and greasy
TTITLE6=All in down and out blues
TTITLE7=Honest confession is good for the soul
TTITLE8=Fame apart from God's approval
TTITLE9=The bum hotel
TTITLE10=From Jerusalem to Jericho
TTITLE11=Two-in-one chewing gum
TTITLE12=Travelin' down the road
TTITLE13=Country ham and red gravy
TTITLE14=Summertime on the beeno line
TTITLE15=He won the heart of Sarah Jane
TTITLE16=Peek-a-boo
TTITLE17=Working for my Lord
TTITLE18=She's got the money too
TTITLE19=Wait till the clouds roll by
TTITLE20=Things I don't like to see
TTITLE21=They're after me
TTITLE22=My daughter wished to marry
TTITLE23=Beautiful love
TTITLE24=Give me back my five dollars
TTITLE25=Railroadin' and gamblin'
TTITLE26=Cumberland Mountain deer race
EXTD=
EXTT0=
EXTT1=
EXTT2=
EXTT3=
EXTT4=
EXTT5=
EXTT6=
EXTT7=
EXTT8=
EXTT9=
EXTT10=
EXTT11=
EXTT12=
EXTT13=
EXTT14=
EXTT15=
EXTT16=
EXTT17=
EXTT18=
EXTT19=
EXTT20=
EXTT21=
EXTT22=
EXTT23=
EXTT24=
EXTT25=
EXTT26=
PLAYORDER=
